# xmcd
#
# Track frame offsets: 
#        183
#        1253
#        22458
#        43780
#        68720
#        91683
#        112683
#        132708
#        134508
#        154833
#        176738
#        187713
#
# Disc length: 2841 seconds
#
# Revision: 29
# Processed by: cddbd v1.5.2PL0 Copyright (c) Steve Scherf et al.
# Submitted via: ExactAudioCopy v1.1
#
DISCID=9c0b170c
DTITLE=Zucchero Sugar Fornaciari - Blue's
DYEAR=1987
DGENRE=Rock
TTITLE0=Blue's Introduction
TTITLE1=Con Le Mani
TTITLE2=Pippo
TTITLE3=Dune Mosse
TTITLE4=Bambino Io, Bambino Tu (Legenda)
TTITLE5=Non Ti Sopporto Più
TTITLE6=Senza Una Donna
TTITLE7=Into The Groove
TTITLE8=Hey Man
TTITLE9=Solo Una Sana E Consapevole Libidine Salva Il Giovane Dallo St
TTITLE9=ress E Dall'Azione Cattolica
TTITLE10=Hai Scelto Me
TTITLE11=Dune Mosse (Instrumental)
EXTD=Corrado Rustici
EXTT0=Zucchero Fornaciari
EXTT1=Zucchero Fornaciari
EXTT2=Zucchero Fornaciari
EXTT3=Figliè, Fornaciari
EXTT4=Fornaciari, Jones, Mamoliti
EXTT5=Zucchero Fornaciari
EXTT6=Zucchero Fornaciari
EXTT7=Zucchero Fornaciari
EXTT8=Zucchero Fornaciari
EXTT9=Zucchero Fornaciari
EXTT10=Zucchero Fornaciari
EXTT11=Figliè, Fornaciari
PLAYORDER=
